<?xml version="1.0" ?><svg enable-background="new 0 0 52 52" id="Layer_1" version="1.1" viewBox="0 0 52 52" xml:space="preserve" xmlns="http://www.w3.org/2000/svg" xmlns:xlink="http://www.w3.org/1999/xlink"><g><g><g><g><polygon points="50,40.0002441 39,40.0002441 39,38.0002441 48,38.0002441 48,14.9997559 35.2431641,14.9997559       35.2431641,12.9997559 50,12.9997559     "/></g></g><g><g><polygon points="13,40.0002441 2,40.0002441 2,12.9997559 16.9101563,12.9997559 16.9101563,14.9997559 4,14.9997559       4,38.0002441 13,38.0002441     "/></g></g><g><g><path d="M40.0449219,50.0002441h-28.090332v-18h28.090332V50.0002441z M13.9545898,48.0002441h24.090332v-14h-24.090332      V48.0002441z"/></g></g><g><g><rect height="2" width="14.1884766" x="18.8115234" y="37.0002441"/></g></g><g><g><rect height="2" width="14.1884766" x="18.8115234" y="43.0002441"/></g></g><g><g><path d="M36,19.9997559H16V5.5783691l3.5786133-3.5786133H36V19.9997559z M18,17.9997559h16v-14H20.4067383L18,6.4064941      V17.9997559z"/></g></g></g><g><g><rect height="2" width="3" x="42" y="16.9997559"/></g></g></g></svg>